<svg id="undraw_travel_mode_7sf4" xmlns="http://www.w3.org/2000/svg" width="189.135" height="150.141" viewBox="0 0 189.135 150.141">
  <path id="Caminho_6099" data-name="Caminho 6099" d="M819.026,295.321,837.872,267.3l-18.807,31.04.039,3.154q-2.064.016-4.087-.069l.935-40.537-.026-.313.035-.06.089-3.83-20.638-29.964,20.614,27.1.073.81L816.8,224l-17.826-31.066,17.876,25.686-.187-63.451v-.211l.006.208,1.183,50.008L834.1,184.856l-16.193,24.621.355,27.4,14.95-26.737L818.322,240.9l.2,15.233L840.26,218.89l-21.675,42.558Z" transform="translate(-651.125 -154.954)" fill="#d0cde1"/>
  <ellipse id="Elipse_535" data-name="Elipse 535" cx="79.893" cy="4.071" rx="79.893" ry="4.071" transform="translate(15.924 141.999)" fill="#d0cde1"/>
  <ellipse id="Elipse_536" data-name="Elipse 536" cx="2.418" cy="2.418" rx="2.418" ry="2.418" transform="translate(140.08 144.079)" fill="#3f3d56"/>
  <path id="Caminho_6100" data-name="Caminho 6100" d="M735.311,474.953l-6.376-16.928s.989-3.188-1.649-2.968-9.673,2.638-9.673,2.638-2.418.22.879,3.628l5.716,17.918,1.869-.879-6.156-17.808a1.227,1.227,0,0,1,.879-1.539c1.209-.33,5.826-2.308,6.266-1.1s6.156,18.577,6.156,18.577Z" transform="translate(-592.483 -378.692)" fill="#3f3d56"/>
  <path id="Caminho_6101" data-name="Caminho 6101" d="M720.813,533.5l12.312,36.825a13.236,13.236,0,0,0,3.213,1.553,16.848,16.848,0,0,0,3.163.755,3.821,3.821,0,0,0,1.195-.095c6.331-1.264,28.045-12.877,28.045-12.877s-11.1-34.626-12.971-38.8a4.761,4.761,0,0,0-6.046-2.638s-21.1,5.7-24.128,6.756l-.165.059a6.855,6.855,0,0,0-3.3,2.527h0C719.054,529.431,720.813,533.5,720.813,533.5Z" transform="translate(-595.133 -425.585)" fill="#8ebf79"/>
  <path id="Caminho_6102" data-name="Caminho 6102" d="M757.013,524.414l.06.212c.953-.267,1.765,1.859,1.773,1.88l13.52,37.483.207-.074-1.714-4.753,18.414-8.134,1.45,4.166.208-.072-12.1-34.748-.007-.01c-.043-.068-1.063-1.662-2.273-1.341l.056.213c1.011-.269,1.937,1.1,2.024,1.235l2.56,7.355-19.358,6.328-2.786-7.723C759.015,526.333,758.16,524.093,757.013,524.414Zm24.255,3.618,1.886,5.418L764.1,540.415l-2.184-6.055Zm-14.922,18.621-2.175-6.031,19.055-6.964,1.872,5.379Zm18.825-7.409,2.053,5.9-18.72,7.491-2.082-5.772Zm-14.388,19.71-2.206-6.115,18.718-7.49,1.9,5.47Z" transform="translate(-622.496 -426.358)" opacity="0.2"/>
  <path id="Caminho_6103" data-name="Caminho 6103" d="M726.031,552.788c1.1,1.759,13.411,38.584,13.411,38.584a7.036,7.036,0,0,0,.795,1.114,16.854,16.854,0,0,0,3.163.755,3.821,3.821,0,0,0,1.195-.095,5.542,5.542,0,0,1-3.284-3.753c-1.1-3.408-13.191-39.353-13.191-39.353a15.025,15.025,0,0,1,1.374-4.456l-.165.059a6.855,6.855,0,0,0-3.3,2.527h0S724.932,551.029,726.031,552.788Z" transform="translate(-599.033 -446.194)" opacity="0.2"/>
  <path id="Caminho_6104" data-name="Caminho 6104" d="M733.527,605.869l1.209,3.737s-.989,7.365,4.177,12.2l1.1,3.737-1.136.031-1.2-3.588a20.374,20.374,0,0,1-4.013-12l-1.017-4.117Z" transform="translate(-604.33 -491.14)" fill="#3f3d56"/>
  <ellipse id="Elipse_537" data-name="Elipse 537" cx="2.418" cy="2.418" rx="2.418" ry="2.418" transform="translate(147.5 144.134)" fill="#3f3d56"/>
  <ellipse id="Elipse_538" data-name="Elipse 538" cx="2.418" cy="2.418" rx="2.418" ry="2.418" transform="translate(170.969 133.966)" fill="#3f3d56"/>
  <path id="Caminho_6105" data-name="Caminho 6105" d="M550.943,286.547s-5.6,1.018-5.852,3.308a26.8,26.8,0,0,0,0,4.834Z" transform="translate(-464.413 -253.065)" fill="#e4e576"/>
  <path id="Caminho_6106" data-name="Caminho 6106" d="M529.455,332.463s-16.284,5.852-26.97.763-23.663-11.45-23.663-11.45-6.361.509-5.6-3.308,5.852-25.952,17.556-33.331c0,0,7.124-9.16,11.2-8.651s19.846,38.165,19.846,38.165Z" transform="translate(-410.866 -245.549)" fill="#575a89"/>
  <path id="Caminho_6107" data-name="Caminho 6107" d="M529.455,332.463s-16.284,5.852-26.97.763-23.663-11.45-23.663-11.45-6.361.509-5.6-3.308,5.852-25.952,17.556-33.331c0,0,1.14-1.466,2.978-3.412,2.233-2.368,5.775-5.544,8.217-5.238,4.071.509,19.846,38.165,19.846,38.165Z" transform="translate(-410.866 -245.549)" fill="#c0c161"/>
  <path id="Caminho_6108" data-name="Caminho 6108" d="M717.227,442.547l1.018,2.544s6.615,4.071,3.817,6.87-7.012-4.707-7.012-4.707l-1.639-3.18Z" transform="translate(-589.987 -369.373)" fill="#a0616a"/>
  <path id="Caminho_6109" data-name="Caminho 6109" d="M278.1,462.865l-1.018,17.556,5.343,2.29,2.035-21.118Z" transform="translate(-206.586 -344.147)" fill="#a0616a"/>
  <path id="Caminho_6110" data-name="Caminho 6110" d="M366.087,466.593l7.124,9.16,2.036,6.106,5.089-.254,1.272-6.106-7.124-7.124Z" transform="translate(-272.941 -347.875)" fill="#a0616a"/>
  <ellipse id="Elipse_539" data-name="Elipse 539" cx="6.87" cy="6.87" rx="6.87" ry="6.87" transform="translate(85.64 15.035)" fill="#a0616a"/>
  <path id="Caminho_6111" data-name="Caminho 6111" d="M586.411,254.837l.509,6.361,8.142-2.544s-3.053-4.834-2.29-6.106Z" transform="translate(-495.301 -227.716)" fill="#a0616a"/>
  <path id="Caminho_6112" data-name="Caminho 6112" d="M556.588,271.328s4.821,1.272,7.626-1.781l5.859,2.8-7.633,28.5-16.029-4.325,2.544-5.6s-3.308-3.817.254-7.379c0,0,.763-7.124,3.053-8.651A32.741,32.741,0,0,0,556.588,271.328Z" transform="translate(-465.478 -240.39)" fill="#d0cde1"/>
  <path id="Caminho_6113" data-name="Caminho 6113" d="M605.279,269.047s-8.651,6.87.763,27.225,17.3,37.657,20.355,36.639,13.485-8.905,9.923-11.7-18.574-11.7-20.609-23.408,2.8-23.663,2.8-23.663Z" transform="translate(-506.663 -240.018)" fill="#e4e576"/>
  <path id="Caminho_6114" data-name="Caminho 6114" d="M416.14,144.593l21.881,36.893-6.106,2.544-18.828-25.444Z" transform="translate(-307.983 -107.803)" fill="#c0c161"/>
  <path id="Caminho_6115" data-name="Caminho 6115" d="M493.736,372.547h-1.781L485.339,386.8s-12.467,37.657-11.2,45.29,48.6,6.606,46.053,6.361c-2.422-.233-15.02-58.252-11.322-61.446Z" transform="translate(-411.531 -317.184)" fill="#2f2e41"/>
  <path id="Caminho_6116" data-name="Caminho 6116" d="M476.366,676.582a2.715,2.715,0,0,0-2.544-2.035c-2.036,0-2.036,2.8-2.036,2.8l-5.852,5.343s-5.089,6.361,1.527,6.361,6.615-1.527,6.615-1.527,1.781-1.781,3.308-.763,5.089-1.018,4.58-2.035-1.269-7.6-1.779-6.472S476.366,676.582,476.366,676.582Z" transform="translate(-404.084 -542.344)" fill="#80ac6d"/>
  <path id="Caminho_6117" data-name="Caminho 6117" d="M629.009,651.55s.509-.254-2.036,0a11.934,11.934,0,0,1-3.562,0l1.781,6.87s-1.527,11.7,3.562,10.686,5.089-8.142,5.089-8.142-.763-6.361-.254-6.87.254-7.379-.509-7.379a27.956,27.956,0,0,1-4.447-1.649S631.044,651.55,629.009,651.55Z" transform="translate(-522.887 -520.365)" fill="#80ac6d"/>
  <path id="Caminho_6118" data-name="Caminho 6118" d="M569.459,208.623c-.427-.658-.211-1.552-.511-2.278-.471-1.139-1.934-1.405-3.161-1.509a9.421,9.421,0,0,0-2.449.007,2.351,2.351,0,0,0-1.7,1.232c-.182.364-.136-.777-.019-2.242a7.082,7.082,0,0,1,5.431-6.336l.052-.012a13.428,13.428,0,0,1,4.559-.42,5.933,5.933,0,0,1,3.993,2.04c.435.55.742,1.2,1.227,1.705a8.009,8.009,0,0,0,3.276,1.626,9.886,9.886,0,0,1,3.593,2.073,5.358,5.358,0,0,1,1.737,3.682,3.566,3.566,0,0,1-2.674,3.622,1.87,1.87,0,0,0-.8.345c-1.59,1.233.224,2.524.211,3.912-.01,1.158-1.3,1.913-2.457,1.967a4.662,4.662,0,0,1-4.643-3.689,9.718,9.718,0,0,1,.074-2.887c.13-1.1-2.236-3.685-.673-1.789a2.72,2.72,0,0,1,.6,1.258c.26,1.515-1.118,2.024-1.988,2.864a3.6,3.6,0,0,0-.872,3.707,4.152,4.152,0,0,1-.755-5.244c.28-.429.641-.8.906-1.242.414-.684.529-2.173-.631-2.132C570.955,208.913,570.1,209.6,569.459,208.623Z" transform="translate(-476.741 -186.307)" fill="#2f2e41"/>
  <path id="Caminho_6119" data-name="Caminho 6119" d="M263.241,679.438s-10.215-18.854-34.918-10.7Z" transform="translate(-228.324 -536.487)" fill="#d0cde1"/>
  <path id="Caminho_6120" data-name="Caminho 6120" d="M355.492,609.229s-12.632-16.057,5.6-36.089Z" transform="translate(-319.958 -466.738)" fill="#d0cde1"/>
</svg>
