<svg id="undraw_travel_plans_li01" xmlns="http://www.w3.org/2000/svg" width="174.136" height="133.471" viewBox="0 0 174.136 133.471">
  <ellipse id="Elipse_543" data-name="Elipse 543" cx="26.338" cy="4.347" rx="26.338" ry="4.347" transform="translate(121.461 124.777)" fill="#d0cde1"/>
  <path id="Caminho_6170" data-name="Caminho 6170" d="M966.247,618.506c-.052,9.339-5.622,12.569-12.47,12.531q-.239,0-.475-.008-.476-.013-.942-.049c-6.178-.472-10.962-3.926-10.914-12.612.05-8.988,11.6-20.268,12.466-21.1h0l.05-.048S966.3,609.167,966.247,618.506Z" transform="translate(-796.171 -505.386)" fill="#8ebf79"/>
  <path id="Caminho_6171" data-name="Caminho 6171" d="M987.353,629.6l4.57-6.312-4.586,7.007-.016.728q-.476-.013-.942-.049l.54-9.34,0-.072.008-.014.051-.883-4.52-7.075,4.536,6.414.01.187.408-7.057-3.862-7.307,3.917,6.066.465-14.633,0-.049v.048l-.128,11.541,3.91-4.554-3.933,5.548-.138,6.32,3.662-6.046-3.681,6.975-.077,3.514,5.312-8.414-5.339,9.64Z" transform="translate(-830.191 -505.385)" fill="#3f3d56"/>
  <ellipse id="Elipse_544" data-name="Elipse 544" cx="8.301" cy="8.301" rx="8.301" ry="8.301" transform="translate(137.018 25.507)" fill="#2f2e41"/>
  <ellipse id="Elipse_545" data-name="Elipse 545" cx="5.637" cy="5.637" rx="5.637" ry="5.637" transform="translate(138.446 31.071)" fill="#ffb8b8"/>
  <path id="Caminho_6172" data-name="Caminho 6172" d="M911.828,289.646s2.438,5.637,1.219,6.246-1.828,3.352-1.828,3.352l3.2,6.7,4.418,2.742h2.59s2.59-11.579,1.676-12.95-4.266-2.133-4.266-2.133a7.194,7.194,0,0,1-.457-3.5C918.684,288.427,911.828,289.646,911.828,289.646Z" transform="translate(-771.097 -249.891)" fill="#ffb8b8"/>
  <path id="Caminho_6173" data-name="Caminho 6173" d="M843.281,356.845l-3.961-3.2s-7.161-5.028-6.246-1.371,5.028,3.961,5.028,3.961l6.856,5.485Z" transform="translate(-706.206 -301.093)" fill="#ffb8b8"/>
  <path id="Caminho_6174" data-name="Caminho 6174" d="M887.6,480.173a48.418,48.418,0,0,0,0,17.978l.762,4.114s0,3.2.762,4.418c0,0,1.981,18.13,3.047,18.13s4.418-.609,4.723-1.066-5.942-44.335-5.942-44.335Z" transform="translate(-750.833 -407.662)" fill="#2f2e41"/>
  <path id="Caminho_6175" data-name="Caminho 6175" d="M887.6,480.173a48.418,48.418,0,0,0,0,17.978l.762,4.114s0,3.2.762,4.418c0,0,1.981,18.13,3.047,18.13s4.418-.609,4.723-1.066-5.942-44.335-5.942-44.335Z" transform="translate(-750.833 -407.662)" opacity="0.1"/>
  <path id="Caminho_6176" data-name="Caminho 6176" d="M896.015,738.6l-2.36,8.746s-4.72,2.777-1.8,3.332a12.158,12.158,0,0,0,5.831-.555l1.388-4.026,1.388-.833v4.3h.417l.972-5.692s-.139-2.915-.972-3.193-1.249-1.8-1.249-1.8Z" transform="translate(-754.242 -622.668)" fill="#2f2e41"/>
  <path id="Caminho_6177" data-name="Caminho 6177" d="M896.015,738.6l-2.36,8.746s-4.72,2.777-1.8,3.332a12.158,12.158,0,0,0,5.831-.555l1.388-4.026,1.388-.833v4.3h.417l.972-5.692s-.139-2.915-.972-3.193-1.249-1.8-1.249-1.8Z" transform="translate(-754.242 -622.668)" opacity="0.1"/>
  <path id="Caminho_6178" data-name="Caminho 6178" d="M887.983,461.059a49.517,49.517,0,0,0,1.676,5.332s.609,12.95,2.59,17.368l2.133,5.637s3.5,16.607,2.59,18.435c0,0,4.723,1.066,5.028,0,0,0-.152-8.836.3-10.055s1.219-7.922-2.438-12.8V470.2s5.789-4.875,2.438-11.122S887.983,461.059,887.983,461.059Z" transform="translate(-751.822 -388.853)" fill="#2f2e41"/>
  <path id="Caminho_6179" data-name="Caminho 6179" d="M916.075,751.1l-2.59,9.6s-5.18,3.047-1.981,3.656a13.342,13.342,0,0,0,6.4-.609l1.523-4.418,1.524-.914v4.723h.457l1.066-6.247s-.152-3.2-1.066-3.5-1.371-1.981-1.371-1.981Z" transform="translate(-770.468 -633.037)" fill="#2f2e41"/>
  <path id="Caminho_6180" data-name="Caminho 6180" d="M870.793,321.7s-3.836,2.2-3.836,2.357.457,2.59.457,2.59-4.723,4.723-1.524,8.837c0,0,1.066.762,1.066,3.2v2.438s-8.989,5.637-6.7,7.465,4.723,1.524,5.485,2.59,5.18-.914,6.094-1.219,1.066-.609,1.828.457,5.028-.762,5.028-.762a28.694,28.694,0,0,1,3.352-.762,2.107,2.107,0,0,0,1.066-.3l-6.551-6.7,3.276-8.3s-9.674-6.018-9.674-7.694A21.731,21.731,0,0,1,870.793,321.7Z" transform="translate(-728.511 -276.833)" fill="#28518f"/>
  <path id="Caminho_6181" data-name="Caminho 6181" d="M907.9,323.9a7.092,7.092,0,0,0-.457,6.551,88.217,88.217,0,0,0,3.961,8.227L907.6,339.9h-3.5s-7.313-1.219-6.551,1.524,5.942,1.524,5.942,1.524h3.047s6.856.762,7.77-.457c0,0,2.438-.152,1.371-5.028a131.357,131.357,0,0,0-4.18-13.221Z" transform="translate(-759.707 -278.663)" fill="#ffb8b8"/>
  <ellipse id="Elipse_546" data-name="Elipse 546" cx="5.316" cy="2.705" rx="5.316" ry="2.705" transform="translate(137.671 28.771)" fill="#2f2e41"/>
  <ellipse id="Elipse_547" data-name="Elipse 547" cx="0.762" cy="1.676" rx="0.762" ry="1.676" transform="translate(148.882 34.651)" fill="#ffb8b8"/>
  <ellipse id="Elipse_548" data-name="Elipse 548" cx="4.571" cy="4.571" rx="4.571" ry="4.571" transform="translate(144.464 21.853)" fill="#2f2e41"/>
  <ellipse id="Elipse_549" data-name="Elipse 549" cx="18.752" cy="18.752" rx="18.752" ry="18.752" transform="translate(32.901 9.709)" fill="#e4e576" opacity="0.3"/>
  <ellipse id="Elipse_550" data-name="Elipse 550" cx="11.081" cy="11.081" rx="11.081" ry="11.081" transform="translate(4.262 69.544)" fill="#e4e576" opacity="0.3"/>
  <ellipse id="Elipse_551" data-name="Elipse 551" cx="22.673" cy="22.673" rx="22.673" ry="22.673" transform="translate(63.756 57.952)" fill="#e4e576" opacity="0.3"/>
  <path id="Caminho_6182" data-name="Caminho 6182" d="M153.757,311.341l-.333-.071q.107-.5.223-1l.332.077Q153.864,310.841,153.757,311.341Z" transform="translate(-142.484 -267.353)" fill="#8ebf79"/>
  <path id="Caminho_6183" data-name="Caminho 6183" d="M264.635,99.694c-.175-.65-.365-1.306-.564-1.95l.326-.1c.2.648.391,1.308.567,1.962ZM158,99.545l-.329-.09c.178-.656.372-1.317.575-1.967l.325.1c-.2.646-.394,1.3-.572,1.955ZM263.437,95.82c-.223-.637-.46-1.276-.706-1.9l.317-.125c.247.628.485,1.271.71,1.912Zm-104.223-.162-.321-.114c.227-.641.469-1.287.719-1.918l.317.126c-.249.628-.489,1.269-.715,1.906Zm102.741-3.611c-.268-.616-.552-1.237-.844-1.844l.307-.148c.293.611.579,1.235.849,1.855Zm-101.242-.173-.312-.137c.274-.622.563-1.247.859-1.859l.307.149c-.294.607-.582,1.229-.853,1.847ZM260.2,88.391c-.314-.6-.643-1.195-.978-1.778l.3-.17c.337.586.668,1.188.984,1.789Zm-97.711-.179-.3-.16c.319-.6.653-1.2.994-1.79l.295.171C163.138,87.017,162.806,87.615,162.489,88.212Zm95.69-3.339c-.356-.571-.729-1.144-1.106-1.7l.282-.191c.38.562.755,1.138,1.113,1.712Zm-93.65-.18-.288-.182c.362-.574.739-1.15,1.122-1.711l.282.192c-.381.558-.756,1.13-1.115,1.7ZM255.9,81.51c-.4-.541-.809-1.085-1.229-1.617l.268-.211c.422.535.838,1.082,1.236,1.627Zm-89.083-.176-.274-.2c.4-.547.822-1.093,1.244-1.623l.267.212c-.42.527-.836,1.07-1.237,1.614Zm86.567-3.011c-.436-.513-.889-1.026-1.344-1.523l.251-.23c.458.5.913,1.016,1.352,1.532Zm-84.035-.169-.259-.222c.441-.515.9-1.029,1.359-1.528l.251.231c-.458.5-.912,1.007-1.351,1.518Zm81.292-2.827c-.474-.481-.963-.959-1.452-1.421l.234-.248c.493.465.984.946,1.461,1.43Zm-78.536-.159-.242-.24c.479-.482.972-.961,1.467-1.424l.233.249c-.492.46-.982.936-1.458,1.415Zm75.58-2.629c-.507-.445-1.03-.886-1.553-1.312l.215-.264c.526.428,1.052.872,1.562,1.32Zm-72.613-.147-.224-.257c.512-.445,1.039-.887,1.567-1.312l.214.265c-.524.423-1.048.862-1.557,1.3Zm69.461-2.419c-.537-.406-1.091-.808-1.645-1.195l.2-.28c.558.389,1.115.794,1.655,1.2Zm-66.3-.132-.2-.273c.544-.407,1.1-.809,1.658-1.194l.194.28C179.329,69.037,178.775,69.436,178.234,69.841Zm62.968-2.2c-.567-.366-1.149-.726-1.729-1.071l.174-.293c.584.347,1.169.71,1.74,1.078Zm-59.63-.115-.184-.287c.571-.365,1.157-.725,1.74-1.069l.173.294c-.58.342-1.162.7-1.73,1.062Zm56.134-1.962c-.591-.323-1.2-.639-1.8-.941l.152-.305c.609.3,1.22.622,1.815.947Zm-52.637-.1-.162-.3c.6-.322,1.206-.638,1.813-.937l.151.306c-.6.3-1.21.612-1.8.932Zm49-1.718c-.614-.278-1.243-.549-1.869-.805l.129-.316c.63.258,1.263.53,1.881.81Zm-45.358-.079-.14-.311c.617-.277,1.248-.546,1.877-.8l.128.316c-.624.253-1.252.521-1.865.8ZM230.3,62.211c-.635-.233-1.283-.456-1.925-.665l.105-.324c.646.21,1.3.435,1.937.669Zm-37.834-.06-.116-.32c.637-.231,1.286-.453,1.929-.66l.1.325c-.64.206-1.285.426-1.917.656Zm33.96-1.2c-.649-.184-1.31-.359-1.964-.519l.081-.331c.658.161,1.323.337,1.977.522Zm-30.1-.044-.092-.328c.652-.183,1.318-.357,1.978-.516l.08.331C197.635,60.554,196.974,60.727,196.326,60.909Zm26.15-.921c-.66-.136-1.332-.261-2-.372l.056-.336c.669.112,1.345.238,2.01.374Zm-22.2-.032-.068-.334c.666-.135,1.342-.259,2.011-.369l.055.336c-.665.109-1.337.232-2,.366Zm18.194-.639c-.67-.087-1.349-.162-2.019-.224l.031-.339c.674.062,1.358.138,2.032.225Zm-14.185-.02-.043-.338c.672-.085,1.356-.159,2.032-.22l.03.34c-.673.06-1.352.134-2.02.218Zm10.14-.354c-.672-.038-1.355-.063-2.03-.076l.007-.341c.679.013,1.367.039,2.043.077Zm-6.093-.009-.018-.34c.677-.036,1.364-.06,2.043-.071l.006.341C209.687,58.875,209,58.9,208.331,58.934Z" transform="translate(-146.007 -58.523)" fill="#8ebf79"/>
  <path id="Caminho_6184" data-name="Caminho 6184" d="M788.291,312.451q-.105-.5-.219-1l.332-.076q.115.5.22,1Z" transform="translate(-668.944 -268.274)" fill="#8ebf79"/>
  <path id="Caminho_6185" data-name="Caminho 6185" d="M790.424,442.871l-.335-.066q.1-.5.188-1l.336.06Q790.523,442.369,790.424,442.871Z" transform="translate(-670.616 -376.465)" fill="#8ebf79"/>
  <path id="Caminho_6186" data-name="Caminho 6186" d="M208.872,501.28q-.556,0-1.109-.011l.007-.341c.674.013,1.353.014,2.027,0l.005.341Q209.338,501.28,208.872,501.28Zm2.969-.078-.018-.341c.674-.035,1.355-.084,2.022-.143l.03.34C213.2,501.118,212.52,501.167,211.841,501.2Zm-6.116-.01c-.677-.038-1.361-.088-2.034-.151l.031-.34c.669.062,1.349.112,2.021.15Zm10.177-.353-.043-.338c.671-.085,1.346-.183,2.006-.291l.055.337c-.664.109-1.343.207-2.018.293Zm-14.238-.023c-.674-.087-1.352-.188-2.017-.3l.056-.336c.661.11,1.335.21,2,.3Zm18.262-.636-.067-.334c.662-.134,1.327-.281,1.979-.438l.08.332c-.656.158-1.325.306-1.991.44Zm-22.285-.036c-.665-.137-1.335-.287-1.99-.447l.081-.331c.651.159,1.317.308,1.978.444Zm26.25-.918-.092-.328c.647-.181,1.3-.377,1.941-.583l.1.325c-.645.207-1.3.4-1.953.586Zm-30.212-.048c-.652-.185-1.31-.385-1.957-.594l.105-.324c.643.208,1.3.407,1.945.591Zm34.09-1.194-.116-.321c.63-.228,1.265-.471,1.889-.723l.128.316c-.627.253-1.266.5-1.9.727Zm-37.98-.066c-.637-.233-1.279-.481-1.906-.737l.129-.316c.624.255,1.261.5,1.894.733Zm41.752-1.457-.139-.311c.614-.275,1.23-.564,1.831-.86l.15.306c-.605.3-1.225.589-1.843.866Zm-45.536-.087c-.618-.279-1.239-.574-1.846-.875l.152-.305c.6.3,1.22.593,1.834.87Zm49.189-1.712-.162-.3c.593-.319,1.186-.653,1.764-.993l.173.294c-.581.341-1.178.678-1.775,1Zm-52.846-.107c-.6-.324-1.193-.663-1.775-1.009l.174-.293c.579.343,1.173.681,1.765,1Zm56.359-1.956-.183-.287c.565-.36,1.132-.737,1.687-1.12l.194.281c-.558.385-1.129.764-1.7,1.127Zm-59.871-.126c-.569-.366-1.14-.748-1.7-1.136l.195-.28c.553.385,1.12.765,1.686,1.129Zm63.224-2.189-.2-.273c.538-.4,1.077-.818,1.6-1.24l.214.266c-.528.425-1.07.845-1.611,1.248Zm-66.573-.144c-.54-.406-1.081-.829-1.608-1.256l.215-.265c.524.425,1.061.845,1.6,1.249Zm69.749-2.41-.223-.258c.508-.44,1.015-.9,1.507-1.354l.232.249c-.495.462-1,.92-1.516,1.363Zm-72.918-.16c-.51-.446-1.019-.907-1.511-1.37l.234-.248c.489.46.995.918,1.5,1.362Zm75.9-2.62-.241-.241c.476-.478.949-.969,1.4-1.461l.25.232C249.177,483.975,248.7,484.469,248.222,484.95Zm-78.872-.174c-.475-.48-.948-.977-1.407-1.476l.251-.231c.456.5.926.989,1.4,1.467Zm81.645-2.817-.258-.222c.44-.511.876-1.036,1.3-1.56l.266.213c-.422.528-.861,1.056-1.3,1.57Zm-84.4-.185c-.439-.514-.875-1.044-1.3-1.574l.267-.212c.418.527.851,1.053,1.287,1.565Zm86.953-3-.274-.2c.4-.543.8-1.1,1.178-1.651l.281.193c-.381.556-.78,1.115-1.185,1.661Zm-89.484-.193c-.4-.545-.8-1.1-1.176-1.664l.282-.192c.378.556.771,1.112,1.169,1.654Zm91.793-3.172-.288-.182c.36-.568.714-1.151,1.054-1.734l.295.172c-.342.586-.7,1.173-1.061,1.744Zm-94.084-.2c-.359-.572-.713-1.159-1.051-1.745l.3-.17c.336.582.688,1.165,1.045,1.734Zm96.141-3.33-.3-.161c.319-.6.63-1.2.924-1.807l.306.15C258.543,470.668,258.23,471.28,257.909,471.88Zm-98.178-.2c-.316-.6-.626-1.208-.92-1.816l.307-.148c.292.6.6,1.211.914,1.805Zm99.97-3.473-.312-.138c.273-.615.538-1.245.789-1.871l.317.126C260.242,466.957,259.975,467.591,259.7,468.21Zm-101.742-.192c-.272-.619-.535-1.251-.783-1.878l.317-.126c.246.623.508,1.251.778,1.867Zm103.259-3.6-.321-.115c.227-.636.445-1.284.648-1.926l.325.1c-.2.646-.424,1.3-.652,1.938Zm-104.756-.181c-.226-.638-.442-1.289-.644-1.935l.325-.1c.2.642.416,1.289.64,1.923Zm105.988-3.718-.329-.091c.178-.646.348-1.307.5-1.963l.332.079C262.8,459.2,262.63,459.867,262.45,460.517Zm-107.2-.175c-.177-.652-.345-1.316-.5-1.975l.332-.077c.152.654.319,1.315.5,1.963Z" transform="translate(-143.582 -390.141)" fill="#8ebf79"/>
  <path id="Caminho_6187" data-name="Caminho 6187" d="M151.3,441.634q-.1-.5-.186-1.009l.336-.059q.088.5.185,1Z" transform="translate(-140.571 -375.439)" fill="#8ebf79"/>
  <path id="Caminho_6188" data-name="Caminho 6188" d="M633.973,443.741l-.317-.125c.124-.313.244-.633.357-.952l.321.114C634.219,443.1,634.1,443.424,633.973,443.741Z" transform="translate(-540.85 -377.178)" fill="#8ebf79"/>
  <path id="Caminho_6189" data-name="Caminho 6189" d="M339.987,474.615c-.408,0-.82-.008-1.225-.025l.014-.341c.671.027,1.357.032,2.03.013l.009.341Q340.4,474.616,339.987,474.615Zm2.877-.137-.032-.339c.671-.064,1.349-.152,2.013-.262l.056.336c-.672.111-1.357.2-2.036.265Zm-6.15-.04c-.678-.074-1.362-.172-2.032-.292l.06-.336c.663.119,1.339.216,2.009.289Zm10.2-.629-.079-.332c.656-.156,1.315-.336,1.957-.536l.1.326c-.65.2-1.316.385-1.98.542Zm-14.238-.094c-.662-.166-1.326-.358-1.974-.569l.106-.324c.64.209,1.3.4,1.951.563Zm18.157-1.126-.124-.318c.627-.244,1.255-.514,1.865-.8l.145.308c-.617.291-1.252.563-1.887.81Zm-22.059-.147c-.633-.256-1.264-.537-1.876-.836l.15-.306c.605.3,1.229.573,1.854.826Zm25.772-1.6-.166-.3c.589-.329,1.174-.682,1.738-1.05l.186.286C355.731,470.151,355.14,470.508,354.544,470.841Zm-29.463-.2c-.591-.34-1.177-.705-1.743-1.085l.19-.283c.56.375,1.139.736,1.724,1.073Zm32.9-2.044-.205-.272c.539-.407,1.07-.836,1.578-1.277l.223.258C359.065,467.754,358.528,468.189,357.983,468.6Zm-36.31-.243c-.54-.418-1.071-.86-1.579-1.313l.227-.254c.5.447,1.027.884,1.561,1.3Zm39.41-2.446-.24-.242c.478-.476.946-.974,1.39-1.48l.256.225c-.449.512-.922,1.016-1.406,1.5Zm-42.475-.284c-.477-.487-.943-1-1.386-1.515l.259-.221c.438.513.9,1.017,1.37,1.5Zm45.181-2.8-.271-.207c.409-.536.8-1.092,1.175-1.655l.285.188C364.6,461.72,364.2,462.283,363.789,462.825Zm-47.846-.319c-.406-.548-.8-1.117-1.166-1.69l.287-.184c.363.567.751,1.129,1.153,1.671Zm50.106-3.107-.3-.168c.331-.587.647-1.192.938-1.8l.308.147c-.294.615-.613,1.228-.949,1.821Zm-52.319-.349c-.328-.6-.639-1.216-.924-1.834l.31-.143c.282.611.589,1.221.913,1.813Z" transform="translate(-274.696 -389.132)" fill="#8ebf79"/>
  <path id="Caminho_6190" data-name="Caminho 6190" d="M306.42,441.494c-.121-.318-.238-.644-.348-.968l.323-.11c.109.321.225.643.344.957Z" transform="translate(-269.11 -375.314)" fill="#8ebf79"/>
  <path id="Caminho_6191" data-name="Caminho 6191" d="M309.666,314.572l-.316-.127c.128-.318.262-.637.4-.948l.312.138C309.925,313.942,309.792,314.257,309.666,314.572Z" transform="translate(-271.829 -270.031)" fill="#8ebf79"/>
  <path id="Caminho_6192" data-name="Caminho 6192" d="M317.315,225.131l-.3-.159c.322-.609.67-1.215,1.034-1.8l.289.18C317.977,223.93,317.633,224.529,317.315,225.131Zm52.055-.5c-.329-.6-.685-1.188-1.056-1.76l.286-.185c.375.579.735,1.178,1.068,1.78Zm-49.89-2.988-.276-.2c.4-.559.832-1.111,1.273-1.64l.262.218C320.3,220.548,319.879,221.094,319.48,221.646Zm47.659-.455c-.409-.544-.843-1.082-1.289-1.6l.258-.223c.451.521.89,1.065,1.3,1.616Zm-45.033-2.7-.246-.236c.476-.5.976-.986,1.486-1.45l.23.252C323.07,217.52,322.576,218,322.1,218.494Zm42.349-.4c-.48-.483-.984-.956-1.5-1.4l.225-.256c.518.454,1.027.932,1.513,1.421Zm-39.316-2.357-.212-.267c.541-.428,1.1-.842,1.671-1.231l.193.281C326.23,214.9,325.674,215.309,325.139,215.732Zm36.23-.346c-.542-.412-1.106-.811-1.675-1.185l.187-.285c.576.379,1.147.782,1.695,1.2Zm-32.845-1.971-.173-.294c.594-.349,1.208-.681,1.826-.988l.152.305C329.719,212.742,329.111,213.071,328.524,213.416Zm29.416-.281c-.595-.334-1.208-.651-1.823-.942l.146-.308c.622.294,1.243.615,1.844.953ZM332.2,211.59l-.13-.315c.637-.263,1.291-.507,1.945-.725l.108.323c-.646.216-1.293.456-1.923.717Zm22.035-.211c-.635-.248-1.287-.477-1.936-.679l.1-.325c.657.205,1.316.436,1.959.687Zm-18.144-1.086-.085-.33c.667-.172,1.349-.322,2.027-.446l.062.335c-.67.123-1.344.272-2,.441Zm14.229-.136c-.663-.157-1.34-.292-2.012-.4l.055-.336c.68.112,1.365.249,2.035.407Zm-10.194-.607-.038-.339c.683-.077,1.379-.131,2.069-.162l.015.341c-.683.03-1.371.084-2.046.16Zm6.147-.058c-.677-.063-1.366-.1-2.049-.121l.008-.341c.69.017,1.388.058,2.072.122Z" transform="translate(-278.186 -183.374)" fill="#8ebf79"/>
  <path id="Caminho_6193" data-name="Caminho 6193" d="M630.045,311.578c-.132-.311-.271-.624-.413-.929l.309-.144c.144.309.284.625.418.94Z" transform="translate(-537.513 -267.549)" fill="#8ebf79"/>
  <path id="Caminho_6194" data-name="Caminho 6194" d="M648.421,384.24a1.934,1.934,0,1,0,1.36.567,1.906,1.906,0,0,0-1.36-.567Z" transform="translate(-551.488 -328.715)" fill="#8ebf79"/>
  <path id="Caminho_6195" data-name="Caminho 6195" d="M603.18,384.24a1.934,1.934,0,1,0,1.36.567A1.934,1.934,0,0,0,603.18,384.24Z" transform="translate(-513.959 -328.715)" fill="#8ebf79"/>
  <path id="Caminho_6196" data-name="Caminho 6196" d="M587.967,321.477a9.717,9.717,0,1,0,9.717,9.717A9.717,9.717,0,0,0,587.967,321.477Zm1.888,4.052a.929.929,0,0,1,.938.938.944.944,0,1,1-.938-.938Zm-5.745,11.33a2.754,2.754,0,1,1,2.753-2.753,2.754,2.754,0,0,1-2.753,2.753Zm4.328-5.488v2.655a.472.472,0,1,1-.944,0v-1.944c0-.387-.472-.472-1.815-1.245a.879.879,0,0,1-.546-.8.961.961,0,0,1,.274-.661l2.116-2.039a.923.923,0,0,1,1.46.195l.87,1.773h1.416a.472.472,0,0,1,0,.944h-1.694c-.316,0-.569-.679-1.121-1.52l-1.443,1.52c.528.413,1.425.732,1.425,1.121Zm3.384,5.485a2.753,2.753,0,1,1,2.753-2.753,2.753,2.753,0,0,1-2.753,2.753Z" transform="translate(-494.89 -276.651)" fill="#8ebf79"/>
  <path id="Caminho_6197" data-name="Caminho 6197" d="M749.967,321.477a9.717,9.717,0,1,0,9.717,9.717A9.717,9.717,0,0,0,749.967,321.477Zm-2.576,6.946a1.511,1.511,0,1,1-1.546,1.511,1.527,1.527,0,0,1,1.546-1.511Zm8.241,6.547H754.6V333.46h-9.27v1.511H744.3v-7.553h1.03v4.532h4.119v-3.526h4.122a2.037,2.037,0,0,1,2.059,2.015Z" transform="translate(-629.273 -276.651)" fill="#8ebf79"/>
  <path id="Caminho_6198" data-name="Caminho 6198" d="M151.682,363.246h-2.892a.118.118,0,0,0-.118.118v4.131a.118.118,0,0,0,.118.118h2.892a.473.473,0,0,0,.472-.472v-3.422A.473.473,0,0,0,151.682,363.246Z" transform="translate(-138.543 -311.3)" fill="#8ebf79"/>
  <path id="Caminho_6199" data-name="Caminho 6199" d="M159.349,394.043a.71.71,0,1,0,.558.206A.709.709,0,0,0,159.349,394.043Z" transform="translate(-146.859 -336.845)" fill="#8ebf79"/>
  <path id="Caminho_6200" data-name="Caminho 6200" d="M126.136,394.043a.71.71,0,1,0,.558.206A.709.709,0,0,0,126.136,394.043Z" transform="translate(-119.308 -336.845)" fill="#8ebf79"/>
  <path id="Caminho_6201" data-name="Caminho 6201" d="M126.768,363.246h-2.886a.48.48,0,0,0-.478.478v3.411a.48.48,0,0,0,.478.478h2.886a.118.118,0,0,0,.118-.118v-4.131A.118.118,0,0,0,126.768,363.246Z" transform="translate(-117.582 -311.299)" fill="#8ebf79"/>
  <path id="Caminho_6202" data-name="Caminho 6202" d="M98.967,321.477a9.717,9.717,0,1,0,9.717,9.717A9.717,9.717,0,0,0,98.967,321.477Zm4.721,13.67a1.184,1.184,0,0,1-1.18,1.18H95.426a1.184,1.184,0,0,1-1.18-1.18V327a.947.947,0,0,1,.944-.944h7.553a.947.947,0,0,1,.944.944Z" transform="translate(-89.25 -276.651)" fill="#8ebf79"/>
  <path id="Caminho_6203" data-name="Caminho 6203" d="M130.75,353.2h-6.9a.414.414,0,1,0,0,.826h6.9a.414.414,0,1,0,0-.826Z" transform="translate(-117.581 -302.968)" fill="#8ebf79"/>
  <path id="Caminho_6204" data-name="Caminho 6204" d="M315.142,380.035c-.195,0-.354.289-.354.649s.159.649.354.649.354-.289.354-.649S315.337,380.035,315.142,380.035Z" transform="translate(-276.34 -325.226)" fill="#8ebf79"/>
  <path id="Caminho_6205" data-name="Caminho 6205" d="M299.912,380.035c-.195,0-.354.289-.354.649s.159.649.354.649.354-.289.354-.649S300.107,380.035,299.912,380.035Z" transform="translate(-263.707 -325.226)" fill="#8ebf79"/>
  <path id="Caminho_6206" data-name="Caminho 6206" d="M261.967,321.477a9.717,9.717,0,1,0,9.717,9.717A9.717,9.717,0,0,0,261.967,321.477Zm-4.544,9.386.537-2.856c.139-.776.5-1.387,1.174-1.387h1.015l.059-.233a.943.943,0,0,1,.915-.711H262.8a.944.944,0,0,1,.915.708l.059.236H264.8c.661,0,1.012.6,1.177,1.384v0l.54,2.859a.118.118,0,0,1-.165.13l-.749-.345a.112.112,0,0,1-.068-.086l-.478-2.526c-.089-.325-.212-.472-.475-.472h-5.225c-.26,0-.4.156-.475.472l-.478,2.526a.119.119,0,0,1-.068.086l-.746.342a.118.118,0,0,1-.165-.13Zm10.406,1.838-1.614,4.01a3.359,3.359,0,0,1-1.673-.649,7.067,7.067,0,0,1-2.34.549c-.083,0-.162.006-.236.006s-.153,0-.236-.006a7.141,7.141,0,0,1-2.34-.549,3.359,3.359,0,0,1-1.673.649L256.1,332.7a.549.549,0,0,1-.038-.2.533.533,0,0,1,.31-.484l5.491-2.523a.232.232,0,0,1,.2,0l5.494,2.523a.533.533,0,0,1,.31.484.549.549,0,0,1-.038.2Z" transform="translate(-224.463 -276.651)" fill="#8ebf79"/>
  <path id="Caminho_6207" data-name="Caminho 6207" d="M424.967,321.477a9.717,9.717,0,1,0,9.717,9.717A9.717,9.717,0,0,0,424.967,321.477Zm4.476,10.664c-.1,0-.434,0-.531-.009l-1.915-.05a.058.058,0,0,0-.05.027l-2.874,4.3a.47.47,0,0,1-.4.218h-.7c-.165,0-.221-.165-.162-.319l1.478-4.216a.058.058,0,0,0-.053-.08l-3.591-.08a.242.242,0,0,0-.195.091l-1.112,1.348a.477.477,0,0,1-.372.18h-.493a.118.118,0,0,1-.112-.156l.587-2.027a.481.481,0,0,0,0-.351l-.587-2.027a.117.117,0,0,1,.112-.156h.5a.468.468,0,0,1,.372.18l1.092,1.328a.238.238,0,0,0,.195.091l3.611-.053a.058.058,0,0,0,.053-.08l-1.478-4.213c-.059-.153,0-.319.162-.319h.7a.474.474,0,0,1,.4.218l2.871,4.3a.055.055,0,0,0,.05.027l1.915-.05c.094-.006.431-.009.531-.009,1.31,0,2.133.425,2.133.947s-.826.944-2.133.944Z" transform="translate(-359.676 -276.651)" fill="#8ebf79"/>
  <path id="Caminho_6208" data-name="Caminho 6208" d="M144.968,550.7a2.046,2.046,0,1,1,2.046-2.046A2.046,2.046,0,0,1,144.968,550.7Zm0-3.75a1.7,1.7,0,1,0,1.7,1.7A1.7,1.7,0,0,0,144.968,546.954Z" transform="translate(-133.772 -463.408)" fill="#f0f0f0"/>
  <path id="Caminho_6209" data-name="Caminho 6209" d="M397.968,281.7a2.046,2.046,0,1,1,2.046-2.046A2.046,2.046,0,0,1,397.968,281.7Zm0-3.75a1.7,1.7,0,1,0,1.7,1.7A1.7,1.7,0,0,0,397.968,277.954Z" transform="translate(-343.643 -240.264)" fill="#f0f0f0"/>
  <path id="Caminho_6210" data-name="Caminho 6210" d="M620.224,607.837l-2.3-2.461,2.461-2.3,2.3,2.461Zm-1.93-2.448,1.942,2.082,2.082-1.942-1.942-2.082Z" transform="translate(-527.805 -510.25)" fill="#f0f0f0"/>
</svg>
