<svg id="undraw_journey_lwlj" xmlns="http://www.w3.org/2000/svg" width="228.466" height="130.241" viewBox="0 0 228.466 130.241">
  <ellipse id="Elipse_540" data-name="Elipse 540" cx="17.296" cy="17.296" rx="17.296" ry="17.296" transform="translate(32.581 25.848)" fill="#e4e576"/>
  <path id="Caminho_6121" data-name="Caminho 6121" d="M272.48,307.18a35.026,35.026,0,0,1-3.2,2.56,40.581,40.581,0,0,1-8.533,4.587c-12.54-.3-30.974-1.84-54.243-2.661q-2.6-.89-5.326-1.927-3.6-1.373-7.411-3.017a136.97,136.97,0,0,0-32.1-9.289q-3.457-.57-6.9-.977c-48.433-5.792-93.1,11.226-98.269,13.284H56l3.182-6.162,54.136-104.853,12.66,32.5,4.04,10.376,11.136-15.281,5.75-7.89,26.185,30.02,7.4-16.345,51.24,41.816,2.858,2.331,2.892,2.361.921.752,27.394,22.356Z" transform="translate(-51.173 -184.14)" fill="#f2f2f2"/>
  <path id="Caminho_6122" data-name="Caminho 6122" d="M285,131.987l5.229-11.464,7.24,16.693-6.235-12.067Z" transform="translate(-227.682 -96.284)" opacity="0.1"/>
  <path id="Caminho_6123" data-name="Caminho 6123" d="M455.685,467.764q-3.457-.57-6.9-.977L424.04,411.935Z" transform="translate(-345.195 -354.47)" opacity="0.1"/>
  <path id="Caminho_6124" data-name="Caminho 6124" d="M447.411,191.994l5.75-4.471,26.145,30.167-26.547-25.743Z" transform="translate(-357.43 -149.809)" opacity="0.1"/>
  <path id="Caminho_6125" data-name="Caminho 6125" d="M606.2,319.789l52.25,50.024L651.3,371.5Z" transform="translate(-484.282 -255.475)" opacity="0.1"/>
  <path id="Caminho_6126" data-name="Caminho 6126" d="M260.466,683.719c0,3.9-6.629,4.783-18.9,4.487-12.54-.3-30.974-1.84-54.243-2.661-8.8-.31-18.3-.519-28.424-.519-63.09,0-126.9,8.079-126.9-1.307,0-2.212,2.84-4.324,8.008-6.263,15.325-5.748,51.119-9.957,94-10.635q2.926-.048,5.895-.07,3.143-.027,6.329-.026c17.049,0,33.226.555,47.757,1.551.046,0,.09.008.137.01q1.75.121,3.465.249,1.873.142,3.707.292c.251.02.5.04.752.062.181.014.362.03.541.046.33.026.66.054.985.084a.183.183,0,0,1,.034,0l1.786.157c.062.006.125.012.187.016,17.185,1.559,31.388,3.773,41.038,6.41C255.451,678.015,260.466,680.779,260.466,683.719Z" transform="translate(-32 -558.018)" fill="#28518f" opacity="0.46"/>
  <path id="Caminho_6127" data-name="Caminho 6127" d="M102.887,584.384c0,12.875,8.077,23.293,18.058,23.293" transform="translate(-88.631 -492.237)" fill="#d0cde1"/>
  <path id="Caminho_6128" data-name="Caminho 6128" d="M192.678,606.638c0-13.019,9.013-23.554,20.152-23.554" transform="translate(-160.363 -491.198)" fill="#8ebf79"/>
  <path id="Caminho_6129" data-name="Caminho 6129" d="M135.42,590.188c0,12.229,5.15,22.125,11.515,22.125" transform="translate(-114.621 -496.874)" fill="#8ebf79"/>
  <path id="Caminho_6130" data-name="Caminho 6130" d="M192.678,580.648c0-16.636,10.418-30.1,23.293-30.1" transform="translate(-160.363 -465.208)" fill="#d0cde1"/>
  <path id="Caminho_6131" data-name="Caminho 6131" d="M173.788,695.521s2.561-.079,3.333-.628,3.939-1.206,4.131-.324,3.849,4.384.957,4.407-6.718-.45-7.488-.92S173.788,695.521,173.788,695.521Z" transform="translate(-145.272 -579.917)" fill="#a8a8a8"/>
  <path id="Caminho_6132" data-name="Caminho 6132" d="M182.261,704.152c-2.891.023-6.718-.45-7.488-.92-.587-.357-.82-1.64-.9-2.231l-.085,0s.162,2.065.933,2.535,4.6.943,7.488.92c.835-.007,1.123-.3,1.107-.743C183.2,703.981,182.882,704.147,182.261,704.152Z" transform="translate(-145.272 -585.401)" opacity="0.2"/>
  <path id="Caminho_6133" data-name="Caminho 6133" d="M794.887,575.384c0,12.875,8.077,23.293,18.058,23.293Z" transform="translate(-641.459 -485.047)" fill="#d0cde1"/>
  <path id="Caminho_6134" data-name="Caminho 6134" d="M884.678,597.638c0-13.019,9.013-23.554,20.152-23.554Z" transform="translate(-713.192 -484.008)" fill="#8ebf79"/>
  <path id="Caminho_6135" data-name="Caminho 6135" d="M827.42,581.188c0,12.229,5.15,22.125,11.515,22.125Z" transform="translate(-667.449 -489.684)" fill="#8ebf79"/>
  <path id="Caminho_6136" data-name="Caminho 6136" d="M884.678,571.648c0-16.636,10.418-30.1,23.293-30.1Z" transform="translate(-713.192 -458.018)" fill="#d0cde1"/>
  <path id="Caminho_6137" data-name="Caminho 6137" d="M865.788,686.521s2.561-.079,3.333-.628,3.939-1.206,4.131-.324,3.849,4.384.957,4.407-6.718-.45-7.488-.92S865.788,686.521,865.788,686.521Z" transform="translate(-698.101 -572.727)" fill="#a8a8a8"/>
  <path id="Caminho_6138" data-name="Caminho 6138" d="M874.26,695.152c-2.891.023-6.718-.45-7.488-.92-.587-.357-.82-1.64-.9-2.231l-.085,0s.162,2.065.932,2.535,4.6.943,7.488.92c.835-.007,1.123-.3,1.107-.743C875.2,694.981,874.882,695.147,874.26,695.152Z" transform="translate(-698.101 -578.211)" opacity="0.2"/>
  <rect id="Ret창ngulo_1922" data-name="Ret창ngulo 1922" width="3.62" height="6.453" transform="translate(96.736 88.587)" fill="#3f3d56"/>
  <ellipse id="Elipse_541" data-name="Elipse 541" cx="0.708" cy="0.708" rx="0.708" ry="0.708" transform="translate(97.838 89.61)" fill="#f2f2f2"/>
  <path id="Caminho_6139" data-name="Caminho 6139" d="M522.97,538.386s-1.1,6.391.881,6.611.22-6.831.22-6.831Z" transform="translate(-423.985 -455.313)" fill="#ffb9b9"/>
  <path id="Caminho_6140" data-name="Caminho 6140" d="M523.719,430.788s-2.314,21.926-1.653,22.256,2.424.771,2.755.441,1.653-13.883,1.653-13.883l-.992-7.052Z" transform="translate(-423.412 -369.531)" fill="#575a89"/>
  <path id="Caminho_6141" data-name="Caminho 6141" d="M523.719,430.788s-2.314,21.926-1.653,22.256,2.424.771,2.755.441,1.653-13.883,1.653-13.883l-.992-7.052Z" transform="translate(-423.412 -369.531)" fill="#8ebf79"/>
  <rect id="Ret창ngulo_1923" data-name="Ret창ngulo 1923" width="6.941" height="7.492" transform="translate(104.549 51.396)" fill="#2f2e41"/>
  <path id="Caminho_6142" data-name="Caminho 6142" d="M551.027,398.465s-.22,4.848-1.763,5.178,1.432,5.95,1.432,5.95l4.628-.441,1.1-6.611s-2.534-.441-1.653-3.856Z" transform="translate(-444.88 -343.709)" fill="#ffb9b9"/>
  <path id="Caminho_6143" data-name="Caminho 6143" d="M551.027,398.465s-.22,4.848-1.763,5.178,1.432,5.95,1.432,5.95l4.628-.441,1.1-6.611s-2.534-.441-1.653-3.856Z" transform="translate(-444.88 -343.709)" opacity="0.1"/>
  <path id="Caminho_6144" data-name="Caminho 6144" d="M528.888,546.078l.33,1.873,1.983-.441-.441-1.873Z" transform="translate(-422.521 -435.901)" fill="#ffb9b9"/>
  <path id="Caminho_6145" data-name="Caminho 6145" d="M557.489,533.585l-.661,1.983,2.093,1.1.11-1.653Z" transform="translate(-444.842 -426.273)" fill="#ffb9b9"/>
  <path id="Caminho_6146" data-name="Caminho 6146" d="M540.767,510.994s-2.644,7.713-2.093,11.349,2.755,20.934,2.755,20.934,2.534,1.653,4.077-.22l-1.1-14.764s.22-8.925,1.1-8.043,4.3,11.238,4.3,11.238l-.661,9.365s.331,2.865,2.314,1.653l2.754-10.357s-.881-13.883-1.322-14.433-3.305-6.941-3.305-6.941Z" transform="translate(-436.714 -433.431)" fill="#2f2e41"/>
  <ellipse id="Elipse_542" data-name="Elipse 542" cx="3.195" cy="3.195" rx="3.195" ry="3.195" transform="translate(105.21 50.514)" fill="#ffb9b9"/>
  <path id="Caminho_6147" data-name="Caminho 6147" d="M546.546,429.368s1.212,1.763,2.754.551a5.761,5.761,0,0,1,2.424-1.322l1.873,1.1-.441,4.3.661,11.9s-8.043.661-8.484-.22.551-4.628.551-4.628L544.453,433v-3.636Z" transform="translate(-441.391 -367.781)" fill="#e4e576"/>
  <path id="Caminho_6148" data-name="Caminho 6148" d="M535.95,423.784s-1.983-6.06-2.644-6.17-2.534,1.212-2.534,1.212-2.754.881-2.754,1.432.441.551.441.551L530,423.784a15.234,15.234,0,0,1,.441,4.407,17.714,17.714,0,0,0-.11,3.2s-2.424,14.544-1.212,14.984,1.212.881,1.212.881,1.763.992,2.093.551,3.526-19.392,3.526-19.392S537.6,425.216,535.95,423.784Z" transform="translate(-428.261 -359.001)" fill="#8ebf79"/>
  <path id="Caminho_6149" data-name="Caminho 6149" d="M566.957,422.763s.992-2.314.441-3.856a1.387,1.387,0,0,0,.771-.441c.22-.331,0-1.983.551-2.093a22.751,22.751,0,0,1,4.848.22,13,13,0,0,1,.881,1.763h-.331l-2.424,3.966s1.212,7.492.992,8.7,3.2,6.28,3.636,6.611,2.424,5.619,1.543,6.17-8.594,4.077-8.925,2.314-2.644-12.34-2.644-12.34a60.167,60.167,0,0,1,.22-7.272A27.017,27.017,0,0,0,566.957,422.763Z" transform="translate(-458.827 -357.98)" fill="#8ebf79"/>
  <path id="Caminho_6150" data-name="Caminho 6150" d="M591.317,535.1s-2.314,7.6,0,7.272,1.763-7.492,1.763-7.492Z" transform="translate(-478.009 -452.687)" fill="#ffb9b9"/>
  <path id="Caminho_6151" data-name="Caminho 6151" d="M553.054,679.642s1.827.522,1.7,1.7a1.954,1.954,0,0,1-1.174,1.566,1.179,1.179,0,0,0-.522,1.174c.13.783-1.044,1.957-3,1.435s-1.566-1.044-1.566-1.044a2.266,2.266,0,0,1,.913-1.435,6.9,6.9,0,0,0,1.7-2.479c0-.13.261-1.044.261-1.044S552.4,678.859,553.054,679.642Z" transform="translate(-444.588 -568.029)" fill="#2f2e41"/>
  <path id="Caminho_6152" data-name="Caminho 6152" d="M584.09,668.553s-1.983.881-1.542,1.983,1.873,2.644,2.093,4.3,2.093,3.085,3.416,2.2-.22-2.644-.22-2.644a31.034,31.034,0,0,1-1.763-3.746c-.11-.661.22-1.322-.441-1.543S584.09,668.553,584.09,668.553Z" transform="translate(-471.773 -559.478)" fill="#2f2e41"/>
  <path id="Caminho_6153" data-name="Caminho 6153" d="M594.69,429.2s-.275-1.267.055-.5,2.754,10.137.551,15.756c0,0-.22,6.941-.441,6.941s-2.865-.11-2.755-.881.331-13.222.331-13.993.386-5.784.386-5.784Z" transform="translate(-479.454 -367.667)" fill="#8ebf79"/>
  <path id="Caminho_6154" data-name="Caminho 6154" d="M594.208,422.571A6.659,6.659,0,0,1,595.09,424c.331.771,2.755,10.137.551,15.756,0,0-.22,6.941-.441,6.941s-2.865-.11-2.755-.881.331-13.222.331-13.993-.661-5.95-.661-5.95Z" transform="translate(-479.468 -362.967)" fill="#8ebf79"/>
  <path id="Caminho_6155" data-name="Caminho 6155" d="M539.281,364.352a6.768,6.768,0,0,0-2.824,2.211,4.688,4.688,0,0,0-.788,1.079,4.344,4.344,0,0,0-.318,1.586q-.08,1.264-.052,2.533a7.275,7.275,0,0,1-.181,2.411,16.541,16.541,0,0,1-1.086,2.079,4.36,4.36,0,0,0-.169,3.627c.279.629.73,1.164,1.068,1.763a5.461,5.461,0,0,1,.627,3.512l1.587-2.055a10.364,10.364,0,0,0,2.35-4.342c.415-2.376-.853-4.7-1.1-7.1a2.907,2.907,0,0,1,.332-1.947c.559-.821,1.775-1.111,2.111-2.045.049.391,2.392,1.637,2.674,1.395a2.918,2.918,0,0,1-.443,2.819c-.227.282-.506.519-.727.8a3.817,3.817,0,0,0-.623,2.673c.081.933.35,1.839.492,2.765a20.536,20.536,0,0,1,.172,2.78,2.474,2.474,0,0,1-.458,1.82,5.51,5.51,0,0,0,1.983-1.215,9.888,9.888,0,0,1,.989-.938c.71-.512,1.671-.664,2.25-1.32a2.709,2.709,0,0,0,.478-2.217c-.121-.772-.417-1.506-.566-2.273a6.107,6.107,0,0,1,.153-2.933,9.087,9.087,0,0,0,.588-2.077c.084-1.47-1.05-2.7-2.139-3.69A6.869,6.869,0,0,0,539.281,364.352Z" transform="translate(-432.676 -316.268)" fill="#2f2e41"/>
  <path id="Caminho_6156" data-name="Caminho 6156" d="M686.115,167.475a23.9,23.9,0,0,1-4.677.894c-5.4.648-12.8.878-12.8.878s-38.016,3.153-66.51-8.574c0,0-4.145-2.173-.295-5.1a12.43,12.43,0,0,1,1.88-1.148l.047-.046a10.456,10.456,0,0,1,8.414-2.662l74.833,12.1S689.749,166.134,686.115,167.475Z" transform="translate(-485.927 -146.486)" fill="#f2f2f2"/>
  <path id="Caminho_6157" data-name="Caminho 6157" d="M953.25,159.14l15.667-11.116,6.905,1.194-6.761,11.756S953.43,161.1,953.25,159.14Z" transform="translate(-767.973 -143.635)" fill="#f2f2f2"/>
  <path id="Caminho_6158" data-name="Caminho 6158" d="M725.129,8.752,756.335,0l5.03,1.051-14.1,6.341-4.406,4.929Z" transform="translate(-579.295)" fill="#f2f2f2"/>
  <path id="Caminho_6159" data-name="Caminho 6159" d="M681.442,184.2c-5.4.648-12.795.878-12.795.878s-38.016,3.153-66.51-8.574c0,0-4.145-2.173-.295-5.1l.013.053s6.148,4.155,35.524,7.625Z" transform="translate(-485.93 -162.312)" fill="#f2f2f2"/>
  <path id="Caminho_6160" data-name="Caminho 6160" d="M978.931,227.11l13.952,5.7,3.5-.389-8.346-6.272S977.949,223.993,978.931,227.11Z" transform="translate(-788.435 -205.467)" fill="#f2f2f2"/>
  <path id="Caminho_6161" data-name="Caminho 6161" d="M621.074,163c-.666.012-2.191-1.105-3.139-1.856a9.962,9.962,0,0,1,1.412-1.089c.764.587,2.125,1.536,2.881,1.5C623.32,161.5,622.076,162.979,621.074,163Z" transform="translate(-500.094 -153.243)" fill="#f2f2f2"/>
  <path id="Caminho_6162" data-name="Caminho 6162" d="M785.487,242.322l-8.957.468-25.184-16.982-4.675-3.153-2.272-1.532c4.261-3.6,21.643,1.364,21.643,1.364a1.533,1.533,0,0,1,.423,1.263,7.777,7.777,0,0,1-.657,2.507c-.042.1-.068.152-.068.152Z" transform="translate(-601.124 -200.987)" fill="#f2f2f2"/>
  <path id="Caminho_6163" data-name="Caminho 6163" d="M686.115,167.475a23.9,23.9,0,0,1-4.677.894c-5.4.648-12.8.878-12.8.878s-38.016,3.153-66.51-8.574c0,0-4.145-2.173-.295-5.1a12.43,12.43,0,0,1,1.88-1.148l.047-.046a10.456,10.456,0,0,1,8.414-2.662l74.833,12.1S689.749,166.134,686.115,167.475Z" transform="translate(-485.927 -146.486)" fill="#28518f"/>
  <path id="Caminho_6164" data-name="Caminho 6164" d="M953.25,159.14l15.667-11.116,6.905,1.194-6.761,11.756S953.43,161.1,953.25,159.14Z" transform="translate(-767.973 -143.635)" fill="#28518f"/>
  <path id="Caminho_6165" data-name="Caminho 6165" d="M725.129,8.752,756.335,0l5.03,1.051-14.1,6.341-4.406,4.929Z" transform="translate(-579.295)" fill="#28518f"/>
  <path id="Caminho_6166" data-name="Caminho 6166" d="M681.442,184.2c-5.4.648-12.795.878-12.795.878s-38.016,3.153-66.51-8.574c0,0-4.145-2.173-.295-5.1l.013.053s6.148,4.155,35.524,7.625Z" transform="translate(-485.93 -162.312)" fill="#8ebf79"/>
  <path id="Caminho_6167" data-name="Caminho 6167" d="M978.931,227.11l13.952,5.7,3.5-.389-8.346-6.272S977.949,223.993,978.931,227.11Z" transform="translate(-788.435 -205.467)" fill="#28518f"/>
  <path id="Caminho_6168" data-name="Caminho 6168" d="M621.074,163c-.666.012-2.191-1.105-3.139-1.856a9.962,9.962,0,0,1,1.412-1.089c.764.587,2.125,1.536,2.881,1.5C623.32,161.5,622.076,162.979,621.074,163Z" transform="translate(-500.094 -153.243)" fill="#8ebf79"/>
  <path id="Caminho_6169" data-name="Caminho 6169" d="M785.487,242.322l-8.957.468-25.184-16.982-4.675-3.153-2.272-1.532c4.261-3.6,21.643,1.364,21.643,1.364a1.533,1.533,0,0,1,.423,1.263,7.777,7.777,0,0,1-.657,2.507c-.042.1-.068.152-.068.152Z" transform="translate(-601.124 -200.987)" fill="#28518f"/>
</svg>
