<svg id="emaill" xmlns="http://www.w3.org/2000/svg" width="20.9" height="15.92" viewBox="0 0 20.9 15.92">
  <g id="Grupo_1976" data-name="Grupo 1976" transform="translate(0 0)">
    <path id="Caminho_6225" data-name="Caminho 6225" d="M19.063,61H1.837A1.84,1.84,0,0,0,0,62.837V75.083A1.84,1.84,0,0,0,1.837,76.92H19.063A1.84,1.84,0,0,0,20.9,75.083V62.837A1.84,1.84,0,0,0,19.063,61Zm-.254,1.225-8.32,8.321L2.1,62.225ZM1.225,74.829V63.085l5.9,5.847Zm.866.866,5.9-5.9,2.068,2.05a.612.612,0,0,0,.864,0l2.016-2.016L18.809,75.7Zm17.584-.866L13.806,68.96l5.869-5.869Z" transform="translate(0 -61)" fill="#28518f"/>
  </g>
</svg>
