<svg id="smartphon" xmlns="http://www.w3.org/2000/svg" width="20.487" height="37.354" viewBox="0 0 20.487 37.354">
  <g id="Grupo_1975" data-name="Grupo 1975" transform="translate(0)">
    <path id="Caminho_6224" data-name="Caminho 6224" d="M130.279,0H117.66a3.965,3.965,0,0,0-3.968,3.894v29.57a3.928,3.928,0,0,0,3.93,3.89l12.64-.014a3.9,3.9,0,0,0,3.9-3.89l.018-29.558A3.9,3.9,0,0,0,130.279,0Zm-8.132,2.335h3.661a.584.584,0,0,1,0,1.167h-3.661a.584.584,0,1,1,0-1.167Zm-2.2.186a.6.6,0,0,1,.826,0,.585.585,0,0,1-.411,1,.6.6,0,0,1-.414-.172.589.589,0,0,1,0-.826ZM123.859,36.2a1.747,1.747,0,1,1,1.746-1.747A1.749,1.749,0,0,1,123.859,36.2Zm8.509-4.68H115.735V5.545h16.633V31.516Z" transform="translate(-113.692)" fill="#28518f"/>
  </g>
</svg>
