<svg id="mapbrasil" xmlns="http://www.w3.org/2000/svg" xmlns:xlink="http://www.w3.org/1999/xlink" width="33.953" height="34.7" viewBox="0 0 33.953 34.7">
  <defs>
    <linearGradient id="linear-gradient" x1="0.153" y1="0.099" x2="0.779" y2="0.87" gradientUnits="objectBoundingBox">
      <stop offset="0" stop-color="#93c178"/>
      <stop offset="1" stop-color="#e4e576"/>
    </linearGradient>
  </defs>
  <path id="Caminho_6214" data-name="Caminho 6214" d="M5.506,11.552a.7.7,0,0,0,.174.471.9.9,0,0,1,.174.355c.022.2.13.253.3.29a.473.473,0,0,1,.391.348c.051.188.152.239.34.167.369-.138.738-.29,1.108-.434-.007.043-.022.109-.029.174a5.686,5.686,0,0,0-.065.775.407.407,0,0,0,.42.434c.478,0,.948-.007,1.426-.022a.794.794,0,0,0,.594-.275c.022-.022.051-.058.072-.051.282.051.434-.145.608-.311a.963.963,0,0,1,.709-.311,3.569,3.569,0,0,0,.579-.08.508.508,0,0,1,.051.08.391.391,0,0,1,.022.485.891.891,0,0,0-.036.376,1.275,1.275,0,0,1-.014.29.541.541,0,0,0,.007.4,2.44,2.44,0,0,0,.7.862.625.625,0,0,0,.536.138.4.4,0,0,1,.21.065c.087.051.152.152.239.174a.555.555,0,0,1,.3.188.443.443,0,0,0,.42.188c.13-.022.188.014.224.145.08.275.246.355.528.29a.435.435,0,0,1,.268.036c.181.08.348.188.521.268a.279.279,0,0,1,.188.239,3.754,3.754,0,0,1,.036.492c-.007.224.022.456-.174.637a.165.165,0,0,0-.043.116.713.713,0,0,0,.21.5,1.542,1.542,0,0,0,.883.376c.145.014.3,0,.449.007.2.007.261.1.21.282a1.055,1.055,0,0,1-.051.138.476.476,0,0,0,.326.76c.08.029.2.116.2.174.014.3.145.63-.094.912a.209.209,0,0,0-.065.109.483.483,0,0,0-.014.246.152.152,0,0,1-.014.188.877.877,0,0,0-.2.478c-.022.384-.072.767-.1,1.151a5.028,5.028,0,0,0-.014.572.335.335,0,0,0,.253.333,3.4,3.4,0,0,0,.659.072.931.931,0,0,1,.919,1.1,2.1,2.1,0,0,0-.014.478c.007.2.072.246.275.21.094-.014.188-.043.282-.051a.316.316,0,0,1,.369.362,3.517,3.517,0,0,1-.167.775c-.094.275-.116.268.123.434a.671.671,0,0,1,.3.68c-.022.188-.072.369-.08.557a.545.545,0,0,1-.42.514,3.9,3.9,0,0,0-1.47.948c-.268.246-.5.521-.746.789a.277.277,0,0,0-.036.413.994.994,0,0,0,.094.145c.174.225.4.413.326.753-.029.137.072.2.21.159a.471.471,0,0,0,.159-.08.192.192,0,0,1,.282.051,5.259,5.259,0,0,0,.956.927.709.709,0,0,1,.311.463c.022.167.123.181.253.167a3.769,3.769,0,0,0,.369-.08c.08.167.2.188.319.043a.545.545,0,0,0,.123-.217,1.621,1.621,0,0,1,.478-.825c.239-.224.449-.478.681-.731.014.014.043.029.065.051a.306.306,0,0,0,.529-.044,3.652,3.652,0,0,0,.224-.405,1.507,1.507,0,0,1,.5-.586,1.626,1.626,0,0,0,.659-1.274c.036-.261.051-.528.08-.789.007-.1.029-.2.044-.3.051-.326.326-.579.282-.941.072.036.123.072.181.1a.154.154,0,0,0,.232-.087.833.833,0,0,1,.586-.456,1.587,1.587,0,0,0,.521-.282.9.9,0,0,1,.637-.282,1.248,1.248,0,0,0,1.028-.384.577.577,0,0,1,.8-.13,1.011,1.011,0,0,0,.637.094,2.748,2.748,0,0,0,1.166-.5,1.874,1.874,0,0,0,.666-.738.832.832,0,0,1,.463-.463.567.567,0,0,0,.2-.109c.282-.34.565-.688.84-1.042.137-.181.072-.4.087-.6a.574.574,0,0,1,.2-.5,1.528,1.528,0,0,0,.55-.782,1.839,1.839,0,0,0,.072-.4c-.007-.022.043-.036.051-.058a1.7,1.7,0,0,0,.065-.275c.051-.261.1-.514.145-.775.051-.311.094-.623.138-.934.043-.29.058-.579.116-.869a.542.542,0,0,1,.362-.449,1.984,1.984,0,0,0,1.354-1.361.715.715,0,0,1,.623-.55,1.289,1.289,0,0,0,.927-.528,1.809,1.809,0,0,1,.167-.282c.188-.2.391-.391.586-.586a1.6,1.6,0,0,0,.478-1.629,6.587,6.587,0,0,1-.123-.659,4.568,4.568,0,0,0-.065-.55.956.956,0,0,0-.775-.76c-.123-.022-.239-.058-.362-.072a1.035,1.035,0,0,1-.659-.362c-.29-.369-.572-.753-.84-1.137-.174-.246-.3-.514-.659-.543-.043,0-.094-.065-.123-.116a.791.791,0,0,0-.644-.413,1.2,1.2,0,0,0-.456.014,1.6,1.6,0,0,1-1.115-.123,1.015,1.015,0,0,1-.391-.253.74.74,0,0,0-.463-.224,1.856,1.856,0,0,0-.948.159c-.152.058-.311.116-.485.174.08-.311.152-.594.232-.876.036-.138.022-.21-.123-.268a5.193,5.193,0,0,1-.623-.34c-.1-.065-.181-.159-.29-.224A3.776,3.776,0,0,0,28.9,6.665a1.613,1.613,0,0,0-1.361.3c-.2.159-.405.311-.6.456a1.064,1.064,0,0,0-.275-.384.855.855,0,0,0,.224-.058,2.01,2.01,0,0,0,.413-.21,6.315,6.315,0,0,0,.63-.536c.116-.116.087-.21-.065-.282a3.02,3.02,0,0,0-1.332-.282,1.074,1.074,0,0,0-.565.188c-.174.109-.326.239-.507.34a.67.67,0,0,1-.514.109,2.347,2.347,0,0,1,.181-.384,3.678,3.678,0,0,1,1.216-1.071c.138-.072.253-.167.225-.348a.273.273,0,0,1,.13-.29c.08-.058.152-.123.253-.21a1.339,1.339,0,0,0-.225-.116,4.2,4.2,0,0,1-.427-.138.382.382,0,0,1-.2-.217c-.044-.167-.029-.348-.072-.521-.087-.4-.2-.8-.29-1.158a.264.264,0,0,0-.4.065c-.1.109-.217.2-.311.319a.3.3,0,0,0-.065.217c.029.217.029.253-.174.3a.484.484,0,0,0-.348.319.321.321,0,0,1-.246.2,2.573,2.573,0,0,1-.97.014.789.789,0,0,1-.615-.319.229.229,0,0,0-.152-.094c-.21-.036-.42-.058-.63-.094a.283.283,0,0,0-.326.152.772.772,0,0,1-.912.362,1.12,1.12,0,0,0-.782.022,5.426,5.426,0,0,1-.753.181.548.548,0,0,1-.507-.13,1.705,1.705,0,0,1-.543-1.079,1.4,1.4,0,0,1,.275-.941c.2-.3.188-.333-.08-.543A.341.341,0,0,1,18.06.432c.014-.065.058-.13.043-.181a.311.311,0,0,0-.109-.21c-.167-.087-.3-.036-.427.145-.181.239-.34.507-.666.557-.232.036-.471.058-.709.08-.058.007-.116-.014-.174-.007a.451.451,0,0,0-.362.268c-.152.253-.217.261-.434.058-.022-.014-.036-.043-.058-.051-.2-.1-.384-.2-.579-.282a.218.218,0,0,0-.2.08.7.7,0,0,0-.08.6.852.852,0,0,0,.485.615.3.3,0,0,1,0,.543c-.072.043-.159.065-.232.109-.492.282-.985.565-1.477.854a.293.293,0,0,1-.3.022.494.494,0,0,0-.543.036.111.111,0,0,1-.116,0,.938.938,0,0,1-.456-.623.561.561,0,0,0-.442-.507A.94.94,0,0,0,10.7,2.6a1.619,1.619,0,0,1-.746.051,2,2,0,0,0-.55,0,.265.265,0,0,0-.029.514.732.732,0,0,1,.224.116.315.315,0,0,1,.109.2c0,.051-.08.123-.138.145a.917.917,0,0,1-.282.036c-.34.014-.5.224-.362.536a2.432,2.432,0,0,0,.348.55.73.73,0,0,1,.051.963.727.727,0,0,0-.181.637.236.236,0,0,1-.036.167,1.514,1.514,0,0,0-.167.7.551.551,0,0,1-.043.181,1.972,1.972,0,0,0-.109.391c-.022.319-.159.434-.456.34a.927.927,0,0,0-.782.087.8.8,0,0,1-.3.058A3.1,3.1,0,0,1,6.9,8.229a.294.294,0,0,1-.282.246.238.238,0,0,0-.094.051,2.046,2.046,0,0,0-.753,1.325c-.036.138-.043.268-.21.348a.77.77,0,0,0-.275.275.519.519,0,0,0,.029.717A.349.349,0,0,1,5.506,11.552Z" transform="translate(-5.159 0.001)" fill="url(#linear-gradient)"/>
</svg>
