<svg id="instagram" xmlns="http://www.w3.org/2000/svg" width="24.172" height="24.176" viewBox="0 0 24.172 24.176">
  <path id="Caminho_6221" data-name="Caminho 6221" d="M24.559,7.108A8.834,8.834,0,0,0,24,4.175,6.193,6.193,0,0,0,20.459.638,8.857,8.857,0,0,0,17.527.076C16.232.014,15.821,0,12.539,0S8.846.014,7.556.071A8.837,8.837,0,0,0,4.624.633a5.9,5.9,0,0,0-2.144,1.4A5.952,5.952,0,0,0,1.086,4.17,8.858,8.858,0,0,0,.524,7.1C.463,8.4.449,8.808.449,12.091s.014,3.693.071,4.983a8.834,8.834,0,0,0,.562,2.933,6.192,6.192,0,0,0,3.537,3.537,8.858,8.858,0,0,0,2.933.562c1.289.057,1.7.071,4.983.071s3.693-.014,4.983-.071a8.832,8.832,0,0,0,2.933-.562,6.184,6.184,0,0,0,3.538-3.537,8.864,8.864,0,0,0,.562-2.933c.057-1.289.071-1.7.071-4.983s0-3.693-.061-4.983Zm-2.177,9.871a6.627,6.627,0,0,1-.416,2.243,4.01,4.01,0,0,1-2.3,2.3,6.65,6.65,0,0,1-2.243.415c-1.275.057-1.658.071-4.883.071s-3.613-.014-4.884-.071a6.623,6.623,0,0,1-2.243-.415,3.72,3.72,0,0,1-1.388-.9,3.759,3.759,0,0,1-.9-1.388,6.651,6.651,0,0,1-.415-2.243c-.057-1.275-.071-1.658-.071-4.884s.014-3.613.071-4.883a6.623,6.623,0,0,1,.415-2.243,3.675,3.675,0,0,1,.907-1.389,3.753,3.753,0,0,1,1.388-.9,6.655,6.655,0,0,1,2.243-.416C8.94,2.21,9.323,2.2,12.549,2.2s3.613.014,4.884.071a6.627,6.627,0,0,1,2.243.416,3.717,3.717,0,0,1,1.388.9,3.758,3.758,0,0,1,.9,1.389,6.654,6.654,0,0,1,.416,2.243c.057,1.275.071,1.658.071,4.883s-.014,3.6-.071,4.879Zm0,0" transform="translate(-0.449 0)" fill="#9eb0cc"/>
  <path id="Caminho_6222" data-name="Caminho 6222" d="M131.16,124.5a6.211,6.211,0,1,0,6.211,6.211A6.212,6.212,0,0,0,131.16,124.5Zm0,10.239a4.029,4.029,0,1,1,4.029-4.029A4.029,4.029,0,0,1,131.16,134.739Zm0,0" transform="translate(-119.069 -118.62)" fill="#9eb0cc"/>
  <path id="Caminho_6223" data-name="Caminho 6223" d="M365.35,90.052a1.45,1.45,0,1,1-1.45-1.45A1.45,1.45,0,0,1,365.35,90.052Zm0,0" transform="translate(-345.353 -84.417)" fill="#9eb0cc"/>
</svg>
